<mxfile host="app.diagrams.net" modified="2022-06-16T11:09:17.127Z" agent="5.0 (Windows NT 10.0; Win64; x64) AppleWebKit/537.36 (KHTML, like Gecko) Chrome/102.0.0.0 Safari/537.36" etag="QtrZmffjtz96QyVpQnXU" version="14.8.4" type="github">
  <diagram id="ljr_FUvZKFAzjvvsJ6ff" name="Page-1">
    <mxGraphModel dx="2249" dy="706" grid="1" gridSize="10" guides="1" tooltips="1" connect="1" arrows="1" fold="1" page="1" pageScale="1" pageWidth="827" pageHeight="1169" math="0" shadow="0">
      <root>
        <mxCell id="0" />
        <mxCell id="1" parent="0" />
        <mxCell id="33zIBT0E25g07gRkME6K-1" value="" style="rounded=0;whiteSpace=wrap;html=1;fillColor=#fff2cc;strokeColor=#d6b656;dashed=1;glass=0;" parent="1" vertex="1">
          <mxGeometry x="80" y="320" width="420" height="120" as="geometry" />
        </mxCell>
        <mxCell id="33zIBT0E25g07gRkME6K-2" value="业务一" style="rounded=0;whiteSpace=wrap;html=1;" parent="1" vertex="1">
          <mxGeometry x="100" y="390" width="80" height="30" as="geometry" />
        </mxCell>
        <mxCell id="33zIBT0E25g07gRkME6K-3" value="业务二" style="rounded=0;whiteSpace=wrap;html=1;" parent="1" vertex="1">
          <mxGeometry x="220" y="390" width="80" height="30" as="geometry" />
        </mxCell>
        <mxCell id="33zIBT0E25g07gRkME6K-4" value="业务三" style="rounded=0;whiteSpace=wrap;html=1;" parent="1" vertex="1">
          <mxGeometry x="340" y="390" width="80" height="30" as="geometry" />
        </mxCell>
        <mxCell id="33zIBT0E25g07gRkME6K-6" value="&lt;font style=&quot;font-size: 21px&quot;&gt;......&lt;/font&gt;" style="text;html=1;align=center;verticalAlign=middle;resizable=0;points=[];autosize=1;strokeColor=none;" parent="1" vertex="1">
          <mxGeometry x="440" y="400" width="50" height="20" as="geometry" />
        </mxCell>
        <mxCell id="33zIBT0E25g07gRkME6K-7" value="dart" style="text;html=1;align=center;verticalAlign=middle;resizable=0;points=[];autosize=1;strokeColor=none;" parent="1" vertex="1">
          <mxGeometry x="-40" y="255" width="40" height="20" as="geometry" />
        </mxCell>
        <mxCell id="33zIBT0E25g07gRkME6K-8" value="安卓 Native" style="rounded=1;whiteSpace=wrap;html=1;" parent="1" vertex="1">
          <mxGeometry x="80" y="240" width="80" height="40" as="geometry" />
        </mxCell>
        <mxCell id="33zIBT0E25g07gRkME6K-9" value="Ios Native" style="rounded=1;whiteSpace=wrap;html=1;" parent="1" vertex="1">
          <mxGeometry x="200" y="240" width="80" height="40" as="geometry" />
        </mxCell>
        <mxCell id="33zIBT0E25g07gRkME6K-11" value="H5" style="rounded=1;whiteSpace=wrap;html=1;" parent="1" vertex="1">
          <mxGeometry x="320" y="240" width="80" height="40" as="geometry" />
        </mxCell>
        <mxCell id="33zIBT0E25g07gRkME6K-12" value="channel" style="rounded=0;whiteSpace=wrap;html=1;" parent="1" vertex="1">
          <mxGeometry x="100" y="345" width="380" height="30" as="geometry" />
        </mxCell>
      </root>
    </mxGraphModel>
  </diagram>
</mxfile>
